<svg width="23" height="16" viewBox="0 0 23 16" fill="none" xmlns="http://www.w3.org/2000/svg">
<rect width="23" height="16" fill="#E5E5E5"/>
<g id="Sociality UI" clip-path="url(#clip0_0_1)">
<rect width="1440" height="6720" transform="translate(-652 -639)" fill="white"/>
<g id="background">
<rect id="Rectangle 1" x="-651" y="-639" width="1440" height="4993" fill="#FAFCFF"/>
<path id="Union" fill-rule="evenodd" clip-rule="evenodd" d="M-225.857 -388.355C-252.355 -373.699 -279.267 -358.815 -316.495 -350.765C-353.848 -342.687 -401.214 -339.898 -448.006 -337.143H-448.006C-464.918 -336.148 -481.755 -335.156 -498.017 -333.921C-528.666 -331.594 -557.278 -328.401 -580.553 -322.693C-603.852 -316.978 -621.692 -308.768 -630.924 -296.488C-650.512 -270.433 -653.539 -236.414 -635.707 -199.743C-617.865 -163.053 -579.137 -123.715 -515.227 -87.1602C-451.608 -50.7693 -369.411 -30.636 -282.741 -12.497C-268.098 -9.43234 -253.328 -6.42468 -238.499 -3.40509C-165.587 11.4417 -91.257 26.5772 -23.6916 50.1923C35.4098 70.8481 85.2197 97.7944 134.332 124.363C140.899 127.916 147.454 131.462 154.018 134.986C209.668 164.862 265.915 193.116 335.351 210.103C411.467 228.731 490.392 241.825 561.122 247.018C631.865 252.212 694.363 249.499 737.65 236.545C758.849 230.204 771.202 220.777 777.911 209.397C784.625 198.008 785.737 184.579 784.275 170.13C783.07 158.233 780.128 145.7 777.17 133.097L777.169 133.096C776.533 130.386 775.896 127.672 775.276 124.962C771.775 109.67 768.797 94.462 769.492 80.4754C770.146 67.3304 773.792 54.7485 777.785 42.3241C778.364 40.5232 778.949 38.7259 779.535 36.9306C782.992 26.3224 786.426 15.7871 788.222 5.00681C790.319 -7.58139 790.175 -20.4762 785.208 -34.1372C780.241 -47.8027 770.433 -62.2743 753.138 -77.9878C717.971 -109.945 662.691 -139.019 600.341 -167.1C569.173 -181.137 536.253 -194.92 503.215 -208.688C500.892 -209.656 498.569 -210.623 496.247 -211.591L496.241 -211.593C465.521 -224.391 434.798 -237.189 405.394 -250.178C369.441 -266.059 333.773 -283.605 298.062 -301.326C294.74 -302.975 291.416 -304.625 288.092 -306.276C255.691 -322.367 223.229 -338.489 190.447 -353.537C118.157 -386.723 44.3434 -414.675 -33.7 -425.548C-111.829 -436.433 -156.76 -423.313 -195.004 -404.712C-205.599 -399.559 -215.698 -393.974 -225.857 -388.355ZM-195.441 -405.612C-157.027 -424.296 -111.896 -437.452 -33.5621 -426.538C44.6234 -415.646 118.54 -387.647 190.864 -354.446C223.66 -339.391 256.135 -323.263 288.533 -307.173L288.534 -307.173C291.859 -305.522 295.183 -303.871 298.507 -302.221C334.219 -284.5 369.868 -266.964 405.798 -251.093C435.191 -238.109 465.904 -225.315 496.625 -212.517L496.628 -212.516L496.631 -212.514L496.633 -212.513L496.636 -212.512L497.064 -212.334L497.466 -212.166L497.844 -212.009C499.762 -211.21 501.681 -210.41 503.599 -209.611C536.637 -195.844 569.569 -182.055 600.752 -168.012C663.103 -139.93 718.515 -110.802 753.811 -78.7279C771.191 -62.9364 781.111 -48.3352 786.148 -34.4789C791.187 -20.618 791.326 -7.54196 789.208 5.17111C787.399 16.0319 783.939 26.6477 780.482 37.2522C779.897 39.0448 779.313 40.837 778.737 42.63C774.746 55.049 771.138 67.5222 770.491 80.5251C769.804 94.3585 772.749 109.444 776.25 124.738C776.865 127.422 777.496 130.112 778.128 132.802L778.138 132.846L778.138 132.848C781.097 145.451 784.058 158.061 785.27 170.029C786.742 184.574 785.642 198.252 778.772 209.905C771.897 221.567 759.293 231.115 737.937 237.503C694.474 250.51 631.83 253.212 561.049 248.016C490.255 242.818 411.275 229.714 335.113 211.074C265.547 194.056 209.208 165.75 153.545 135.867C146.978 132.341 140.421 128.794 133.853 125.241C84.7365 98.6705 34.999 71.7639 -24.0215 51.1363C-91.5167 27.5457 -165.766 12.4262 -238.678 -2.42084L-238.685 -2.42221L-238.688 -2.42285C-253.519 -5.4429 -268.294 -8.45169 -282.946 -11.5182C-369.604 -29.6548 -451.949 -49.8127 -515.724 -86.2922C-579.732 -122.904 -618.645 -162.37 -636.606 -199.306C-654.577 -236.261 -651.57 -270.69 -631.723 -297.089L-631.43 -296.868L-631.723 -297.089C-622.27 -309.663 -604.129 -317.94 -580.792 -323.664C-557.431 -329.393 -528.751 -332.59 -498.093 -334.919C-481.785 -336.157 -464.917 -337.15 -447.987 -338.147H-447.987L-447.987 -338.147L-447.986 -338.147C-401.221 -340.9 -353.978 -343.682 -316.706 -351.743C-279.632 -359.759 -252.908 -374.54 -226.451 -389.173L-226.45 -389.173L-226.45 -389.174L-226.449 -389.174L-226.449 -389.174C-216.265 -394.807 -206.12 -400.417 -195.441 -405.612ZM-189.501 -354.961C-213.071 -341.942 -237.018 -328.715 -270.138 -321.562C-303.366 -314.386 -345.5 -311.909 -387.119 -309.462L-387.12 -309.462L-387.121 -309.462C-402.162 -308.578 -417.136 -307.697 -431.597 -306.6C-458.857 -304.533 -484.301 -301.698 -504.998 -296.628C-525.718 -291.553 -541.569 -284.263 -549.768 -273.372C-567.175 -250.248 -569.869 -220.054 -554.017 -187.498C-538.155 -154.923 -503.719 -119.989 -446.881 -87.5239C-390.304 -55.2076 -317.204 -37.3268 -240.117 -21.2147C-227.104 -18.4948 -213.978 -15.8254 -200.799 -13.1453L-200.795 -13.1446L-200.788 -13.1431C-135.931 0.0463562 -69.8082 13.4934 -9.70337 34.475C42.8738 52.8239 87.1847 76.7626 130.871 100.364C136.707 103.517 142.532 106.664 148.364 109.79C197.86 136.327 247.881 161.421 309.629 176.511C377.329 193.053 447.528 204.682 510.436 209.295C573.357 213.909 628.937 211.5 667.425 200.001C686.273 194.369 697.247 186 703.204 175.908C709.167 165.806 710.156 153.892 708.855 141.063C707.784 130.502 705.169 119.378 702.538 108.188L702.537 108.187L702.537 108.183C701.97 105.773 701.403 103.361 700.85 100.95C697.736 87.3669 695.086 73.8519 695.705 61.4192C696.286 49.7354 699.531 38.5535 703.082 27.5173C703.338 26.7211 703.595 25.9258 703.854 25.131C704.094 24.3925 704.335 23.6545 704.575 22.9169L704.64 22.7196C707.714 13.2987 710.766 3.94724 712.363 -5.62177C714.227 -16.7961 714.1 -28.2397 709.69 -40.3625C705.278 -52.4899 696.565 -65.3365 681.194 -79.289C649.917 -107.668 600.753 -133.49 545.295 -158.432C517.574 -170.9 488.294 -183.142 458.908 -195.372C456.85 -196.228 454.791 -197.085 452.732 -197.941C425.4 -209.312 398.065 -220.684 371.904 -232.225C339.924 -246.332 308.198 -261.917 276.435 -277.657C273.477 -279.123 270.519 -280.59 267.56 -282.057L267.557 -282.059L267.556 -282.06C238.741 -296.351 209.872 -310.668 180.719 -324.033C116.423 -353.508 50.7772 -378.334 -18.6287 -387.99C-88.108 -397.657 -128.06 -386.006 -162.066 -369.488C-171.486 -364.912 -180.466 -359.952 -189.501 -354.961ZM-162.503 -370.387C-128.326 -386.988 -88.1748 -398.676 -18.4909 -388.98C51.0568 -379.304 116.806 -354.433 181.136 -324.942C210.305 -311.57 239.189 -297.244 268.004 -282.954L268.094 -282.909C271.023 -281.456 273.951 -280.004 276.879 -278.553C308.643 -262.813 340.35 -247.237 372.308 -233.139C398.458 -221.604 425.782 -210.236 453.116 -198.865L453.781 -198.588L459.293 -196.295C488.677 -184.066 517.969 -171.819 545.705 -159.344C601.164 -134.401 650.461 -108.525 681.865 -80.0295L681.554 -79.6861L681.866 -80.0295C697.323 -65.9991 706.149 -53.0228 710.63 -40.7044C715.113 -28.3815 715.234 -16.7566 713.349 -5.45718C711.739 4.19272 708.66 13.6252 705.586 23.0428C705.356 23.7473 705.127 24.4518 704.897 25.1562C704.608 26.0453 704.32 26.9343 704.033 27.8235C700.485 38.8543 697.278 49.9273 696.704 61.4689C696.092 73.7482 698.71 87.1408 701.825 100.726C702.374 103.123 702.94 105.527 703.505 107.931L703.506 107.934C706.137 119.127 708.772 130.33 709.85 140.962C711.161 153.886 710.184 166.05 704.065 176.416C697.941 186.791 686.717 195.28 667.712 200.959C629.047 212.511 573.322 214.909 510.363 210.292C447.392 205.675 377.138 194.036 309.392 177.482C247.514 162.361 197.4 137.215 147.891 110.672C142.113 107.574 136.344 104.457 130.565 101.335L130.413 101.253L130.393 101.242C86.7023 77.6391 42.4637 53.74 -10.033 35.4192C-70.0675 14.4621 -136.11 1.03104 -200.966 -12.1587C-214.154 -14.8406 -227.292 -17.5126 -240.321 -20.2358C-317.397 -36.3457 -390.645 -54.2509 -447.377 -86.6555C-504.314 -119.178 -538.934 -154.239 -554.916 -187.06C-570.907 -219.901 -568.233 -250.505 -550.566 -273.974C-542.146 -285.159 -525.995 -292.514 -505.236 -297.599C-484.454 -302.69 -458.942 -305.529 -431.673 -307.597C-417.164 -308.698 -402.159 -309.58 -387.1 -310.466C-345.507 -312.911 -303.495 -315.382 -270.349 -322.54C-237.383 -329.66 -213.623 -342.784 -190.094 -355.78C-181.033 -360.785 -172.007 -365.771 -162.503 -370.387ZM-221.624 -291.711C-192.819 -297.931 -171.987 -309.435 -151.492 -320.752L-151.491 -320.753L-151.489 -320.754C-143.637 -325.09 -135.833 -329.399 -127.649 -333.374C-98.0951 -347.725 -63.3729 -357.85 -2.97913 -349.45C57.3556 -341.058 114.423 -319.482 170.32 -293.863C195.67 -282.244 220.773 -269.797 245.83 -257.373L245.831 -257.373L245.833 -257.371C248.401 -256.098 250.967 -254.826 253.534 -253.554C281.148 -239.873 308.73 -226.325 336.534 -214.063C359.27 -204.037 383.025 -194.157 406.777 -184.278C408.58 -183.529 410.383 -182.779 412.185 -182.029C437.735 -171.4 463.191 -160.759 487.292 -149.922C535.509 -128.242 578.245 -105.801 605.429 -81.1417C618.79 -69.0193 626.359 -57.8616 630.191 -47.3334C634.021 -36.8096 634.132 -26.8753 632.513 -17.1711C631.125 -8.85822 628.473 -0.734406 625.8 7.45535C625.516 8.32635 625.231 9.19809 624.948 10.0709C624.78 10.5878 624.612 11.1051 624.446 11.6228C621.359 21.2154 618.535 30.9416 618.029 41.1065C617.488 51.923 619.793 63.6787 622.5 75.485C622.979 77.5741 623.47 79.6646 623.961 81.7524L623.967 81.7784L623.968 81.7817C626.254 91.5075 628.526 101.171 629.456 110.345C630.586 121.49 629.725 131.83 624.551 140.593C619.382 149.347 609.857 156.613 593.481 161.505C560.034 171.499 511.72 173.594 457.018 169.583C402.327 165.574 341.297 155.465 282.442 141.085C228.765 127.971 185.282 106.163 142.249 83.0986C137.179 80.3813 132.115 77.6466 127.042 74.9065C89.059 54.3929 50.5283 33.5834 4.81091 17.6331C-47.4459 -0.602448 -104.935 -12.2911 -161.318 -23.755L-161.319 -23.7552L-161.326 -23.7565C-172.789 -26.0872 -184.206 -28.4087 -195.525 -30.7739C-262.547 -44.7797 -326.092 -60.3216 -375.271 -88.4051C-424.681 -116.62 -454.609 -146.977 -468.392 -175.276C-482.166 -203.555 -479.822 -229.773 -464.704 -249.849C-457.59 -259.296 -443.828 -265.628 -425.816 -270.039C-407.826 -274.444 -385.709 -276.908 -362.009 -278.705C-349.439 -279.658 -336.423 -280.423 -323.347 -281.192C-287.161 -283.319 -250.519 -285.473 -221.624 -291.711ZM-2.84143 -350.44C-63.4396 -358.869 -98.3612 -348.708 -128.086 -334.273C-136.355 -330.257 -144.206 -325.922 -152.085 -321.571C-172.538 -310.276 -193.184 -298.875 -221.835 -292.689C-250.648 -286.468 -287.168 -284.321 -323.328 -282.195L-323.332 -282.195L-323.333 -282.195L-323.335 -282.195C-336.426 -281.425 -349.471 -280.659 -362.085 -279.702C-385.794 -277.904 -407.98 -275.436 -426.054 -271.01C-444.105 -266.59 -458.167 -260.192 -465.503 -250.451C-480.88 -230.03 -483.204 -203.402 -469.291 -174.838C-455.388 -146.293 -425.276 -115.809 -375.767 -87.5367C-326.434 -59.3648 -262.74 -43.7985 -195.729 -29.7951C-184.397 -27.427 -172.97 -25.1035 -161.501 -22.7714L-161.498 -22.7709C-105.115 -11.3067 -47.7056 0.366089 4.48145 18.5772C50.1179 34.4993 88.5759 55.2691 126.563 75.7845L126.564 75.7849L126.587 75.7976C131.653 78.5336 136.711 81.2651 141.776 83.9799C184.822 107.051 228.399 128.911 282.205 142.056C341.106 156.448 402.191 166.566 456.944 170.581C511.685 174.594 560.144 172.51 593.767 162.463C610.301 157.524 620.076 150.138 625.412 141.101C630.742 132.074 631.591 121.485 630.451 110.244C629.513 100.998 627.222 91.2548 624.935 81.526L624.931 81.5077C624.441 79.4233 623.951 77.3396 623.474 75.2615C620.767 63.4526 618.495 51.8194 619.028 41.1562C619.527 31.1337 622.312 21.5164 625.398 11.9291C625.51 11.5786 625.624 11.228 625.737 10.8774C625.897 10.3854 626.057 9.89337 626.217 9.40134C626.394 8.85938 626.57 8.31741 626.747 7.77536L626.748 7.77344C629.42 -0.411316 632.099 -8.61447 633.499 -17.0066C635.139 -26.8357 635.033 -36.9516 631.13 -47.6754C627.229 -58.3947 619.547 -69.682 606.101 -81.8823C578.788 -106.659 535.921 -129.153 487.703 -150.834C463.587 -161.677 438.118 -172.323 412.569 -182.953C410.768 -183.702 408.967 -184.451 407.166 -185.2L407.152 -185.206C383.402 -195.083 359.66 -204.958 336.937 -214.978C309.156 -227.23 281.592 -240.768 253.977 -254.45C251.411 -255.722 248.844 -256.995 246.276 -258.268L246.275 -258.268C221.219 -270.692 196.102 -283.146 170.737 -294.772C114.806 -320.407 57.6351 -342.028 -2.84143 -350.44ZM-115.963 -288.179C-133.605 -278.434 -151.546 -268.522 -176.347 -263.165C-201.22 -257.793 -232.762 -255.938 -263.906 -254.106C-275.158 -253.445 -286.359 -252.786 -297.174 -251.966C-317.57 -250.419 -336.599 -248.297 -352.075 -244.506C-367.574 -240.709 -379.397 -235.263 -385.504 -227.15C-398.495 -209.889 -400.512 -187.344 -388.668 -163.017C-376.814 -138.669 -351.07 -112.543 -308.554 -88.256C-266.241 -64.084 -211.562 -50.7053 -153.881 -38.6477C-144.137 -36.6109 -134.308 -34.6118 -124.439 -32.6047C-75.9166 -22.7361 -26.438 -12.6731 18.536 3.02588C57.8865 16.7623 91.05 34.6821 123.736 52.3438L123.737 52.3447L123.738 52.3452L123.745 52.3488L123.752 52.3524C128.114 54.7097 132.468 57.0625 136.828 59.4C173.86 79.2583 211.274 98.0314 257.459 109.319C308.108 121.696 360.627 130.398 407.691 133.85C454.767 137.303 496.339 135.499 525.12 126.899C539.202 122.691 547.381 116.444 551.818 108.926C556.26 101.4 557.001 92.5156 556.029 82.9271C555.228 75.0312 553.273 66.7141 551.304 58.3378C550.88 56.5344 550.455 54.7282 550.041 52.9229C547.711 42.7581 545.724 32.6279 546.188 23.3034C546.623 14.5428 549.056 6.16183 551.712 -2.0972C552.098 -3.29617 552.488 -4.49228 552.878 -5.68658L552.879 -5.69107C555.179 -12.7405 557.459 -19.7277 558.651 -26.8776C560.043 -35.2238 559.947 -43.7646 556.656 -52.8113C553.363 -61.8626 546.856 -71.46 535.364 -81.8915C511.981 -103.114 475.212 -122.43 433.716 -141.096C412.975 -150.425 391.068 -159.586 369.079 -168.738L367.314 -169.472L364.444 -170.667L364.442 -170.668L364.438 -170.669C343.993 -179.176 323.544 -187.684 303.974 -196.318C280.042 -206.876 256.302 -218.54 232.536 -230.319C230.324 -231.416 228.111 -232.513 225.898 -233.611L225.896 -233.612C204.334 -244.307 182.734 -255.021 160.922 -265.023C112.818 -287.078 63.7113 -305.651 11.7939 -312.875C-40.166 -320.105 -70.0336 -311.39 -95.4558 -299.04C-102.493 -295.621 -109.206 -291.912 -115.963 -288.179ZM-95.8928 -299.939C-70.2998 -312.373 -40.2327 -321.124 11.9318 -313.865C63.991 -306.621 113.201 -288.003 161.339 -265.932C183.165 -255.924 204.777 -245.204 226.335 -234.51L226.34 -234.508L226.434 -234.462C228.616 -233.379 230.798 -232.297 232.98 -231.215C256.747 -219.436 280.469 -207.781 304.377 -197.233C323.939 -188.603 344.379 -180.098 364.827 -171.59L369.464 -169.661C391.451 -160.51 413.371 -151.344 434.126 -142.008C475.623 -123.342 512.525 -103.971 536.036 -82.632C547.614 -72.1226 554.233 -62.3955 557.595 -53.1532C560.96 -43.9064 561.051 -35.1844 559.638 -26.7131C558.432 -19.4831 556.126 -12.4157 553.826 -5.37027L553.826 -5.3688L553.825 -5.36487L553.789 -5.25482C553.645 -4.81421 553.501 -4.37372 553.358 -3.93326C553.125 -3.21909 552.894 -2.50507 552.664 -1.79099C550.009 6.46265 547.615 14.7347 547.186 23.3531C546.73 32.5242 548.685 42.532 551.016 52.6994C551.424 54.4796 551.844 56.2649 552.264 58.0511L552.272 58.0872L552.273 58.0897C554.243 66.4665 556.216 74.8604 557.024 82.8262C558.006 92.5102 557.277 101.644 552.679 109.435C548.076 117.234 539.646 123.602 525.406 127.857C496.45 136.51 454.733 138.303 407.618 134.847C360.491 131.39 307.917 122.679 257.222 110.291C210.908 98.9711 173.401 80.1466 136.355 60.2813C131.996 57.9439 127.644 55.5922 123.284 53.2365L123.273 53.2303L123.261 53.2241L123.26 53.2236C90.5692 35.5594 57.4773 17.6786 18.2064 3.97003C-26.6971 -11.7044 -76.0953 -21.7514 -124.617 -31.6202C-134.491 -33.6285 -144.329 -35.6294 -154.085 -37.6689C-211.755 -49.7241 -266.582 -63.1273 -309.05 -87.3876C-351.665 -111.731 -377.593 -137.986 -389.567 -162.579C-401.55 -187.191 -399.553 -210.146 -386.303 -227.751C-379.974 -236.158 -367.851 -241.671 -352.313 -245.477C-336.753 -249.289 -317.654 -251.415 -297.25 -252.963C-286.388 -253.787 -275.157 -254.447 -263.886 -255.11H-263.886C-232.768 -256.94 -201.349 -258.788 -176.559 -264.143C-151.911 -269.467 -134.156 -279.275 -116.557 -288.998C-109.774 -292.745 -103.015 -296.479 -95.8928 -299.939ZM-129.45 -234.967C-108.808 -239.426 -93.8696 -247.68 -79.1928 -255.789L-79.1908 -255.79C-73.5734 -258.894 -67.9943 -261.976 -62.1484 -264.816C-41.0176 -275.083 -16.1916 -282.329 27.0096 -276.317C70.1791 -270.309 111.017 -254.864 151.026 -236.518C169.171 -228.197 187.14 -219.284 205.078 -210.385L205.081 -210.383L207.985 -208.942C208.854 -208.512 209.722 -208.081 210.59 -207.651C230.358 -197.852 250.105 -188.149 270.01 -179.365C286.291 -172.182 303.301 -165.104 320.306 -158.028L324.169 -156.42C342.459 -148.807 360.68 -141.187 377.931 -133.426C412.445 -117.899 443.017 -101.835 462.454 -84.1906C472.004 -75.5197 477.406 -67.5469 480.139 -60.0334C482.871 -52.5245 482.951 -45.435 481.796 -38.5024C480.805 -32.5589 478.91 -26.751 476.996 -20.884L476.957 -20.7639C476.646 -19.811 476.335 -18.8566 476.027 -17.8998C473.817 -11.0289 471.791 -4.04767 471.427 3.25214C471.04 11.022 472.695 19.4589 474.633 27.9139C474.977 29.4169 475.33 30.9203 475.683 32.4211C477.32 39.3882 478.945 46.2997 479.609 52.8613C480.417 60.829 479.798 68.1981 476.116 74.4366C472.439 80.6659 465.656 85.8525 453.955 89.3502C430.039 96.4986 395.477 97.9993 356.326 95.1275C317.187 92.2567 273.508 85.02 231.381 74.726C192.976 65.3371 161.863 49.7253 131.061 33.2076C127.443 31.2672 123.828 29.3141 120.207 27.3572L120.173 27.339C92.9862 12.6478 65.3958 -2.26141 32.6599 -13.6903C-4.75745 -26.7533 -45.9204 -35.1263 -86.2806 -43.336L-86.2986 -43.3397C-94.4995 -45.0079 -102.667 -46.6693 -110.764 -48.3621C-158.742 -58.3927 -204.208 -69.5198 -239.391 -89.6204C-274.747 -109.82 -296.144 -131.543 -305.994 -151.776C-315.834 -171.989 -314.154 -190.708 -303.37 -205.037C-298.309 -211.762 -288.501 -216.287 -275.613 -219.444C-262.748 -222.596 -246.925 -224.361 -229.962 -225.648C-220.971 -226.33 -211.659 -226.877 -202.303 -227.428H-202.303C-176.394 -228.952 -150.146 -230.496 -129.45 -234.967ZM27.1475 -277.307C-16.2584 -283.348 -41.2839 -276.066 -62.5855 -265.716C-68.5165 -262.834 -74.1426 -259.725 -79.786 -256.607L-79.7866 -256.607C-94.4218 -248.521 -109.173 -240.371 -129.661 -235.945C-150.275 -231.491 -176.401 -229.954 -202.283 -228.431H-202.283C-211.658 -227.88 -221 -227.33 -230.037 -226.645C-247.01 -225.357 -262.901 -223.588 -275.851 -220.416C-288.778 -217.248 -298.887 -212.657 -304.169 -205.639L-303.77 -205.338L-304.169 -205.639C-315.212 -190.965 -316.872 -171.836 -306.893 -151.338C-296.923 -130.86 -275.342 -109.009 -239.888 -88.7522C-204.55 -68.5631 -158.935 -57.4115 -110.969 -47.3832C-102.854 -45.6867 -94.6721 -44.0223 -86.4603 -42.3519L-86.4594 -42.3517C-46.0995 -34.1417 -5.01685 -25.7847 32.3303 -12.7462C64.985 -1.34564 92.5028 13.5238 119.694 28.2168L119.696 28.2177L119.735 28.2386C123.355 30.1947 126.969 32.1476 130.589 34.0888C161.404 50.6136 192.609 66.2769 231.143 75.6974C273.316 86.0026 317.051 93.2493 356.253 96.1248C395.443 98.9994 430.149 97.5093 454.242 90.3083C466.1 86.7635 473.133 81.4564 476.977 74.9449C480.815 68.4426 481.421 60.8237 480.604 52.7606C479.932 46.1277 478.289 39.1381 476.651 32.1692C476.3 30.6741 475.949 29.18 475.608 27.6906C473.669 19.2329 472.047 10.9183 472.426 3.30188C472.783 -3.85571 474.771 -10.728 476.979 -17.5937C477.297 -18.5828 477.62 -19.572 477.943 -20.562L477.944 -20.566C479.857 -26.428 481.778 -32.3153 482.782 -38.3379C483.959 -45.3955 483.883 -52.6664 481.079 -60.3753C478.276 -68.0798 472.762 -76.1822 463.126 -84.931C443.56 -102.692 412.857 -118.81 378.341 -134.338C361.076 -142.105 342.842 -149.731 324.553 -157.343L320.695 -158.949C303.687 -166.026 286.685 -173.101 270.414 -180.28C250.531 -189.054 230.802 -198.748 211.034 -208.547C209.199 -209.457 207.363 -210.367 205.526 -211.278C187.589 -220.177 169.605 -229.099 151.443 -237.427C111.399 -255.788 70.4587 -271.28 27.1475 -277.307Z" fill="url(#paint0_linear_0_1)"/>
</g>
<path id="Vector" d="M22.4181 2.46783C22.2851 1.9924 22.0316 1.55937 21.6821 1.21066C21.3327 0.861951 20.8991 0.609382 20.4234 0.47741C18.6376 2.28233e-05 11.4589 2.29387e-05 11.4589 2.29387e-05C11.4589 2.29387e-05 4.29385 -0.0114288 2.48951 0.47741C2.01456 0.609962 1.58183 0.862795 1.23315 1.21147C0.884472 1.56015 0.631638 1.99288 0.499086 2.46783C0.159977 4.29595 -0.00704011 6.15182 0.000227301 8.01111C-0.00308155 9.86145 0.163909 11.7082 0.499086 13.5279C0.632067 14.0031 0.884975 14.4362 1.23353 14.7855C1.58209 15.1348 2.01459 15.3886 2.48951 15.5226C4.27524 16 11.4589 16 11.4589 16C11.4589 16 18.6198 16 20.4234 15.5226C20.8991 15.3892 21.3324 15.1356 21.6817 14.7863C22.0311 14.4369 22.2847 14.0036 22.4181 13.5279C22.7466 11.7092 22.9069 9.85982 22.8955 8.01111C22.9069 6.15023 22.7502 4.29794 22.4181 2.46783ZM9.16577 11.4373V4.56991L15.1413 8.01111L9.16577 11.4373Z" fill="#EB5757"/>
</g>
<defs>
<linearGradient id="paint0_linear_0_1" x1="71.0058" y1="-430.5" x2="71.0058" y2="250.5" gradientUnits="userSpaceOnUse">
<stop stop-color="#E1E1E1"/>
<stop offset="1" stop-color="#E1E1E1" stop-opacity="0"/>
</linearGradient>
<clipPath id="clip0_0_1">
<rect width="1440" height="6720" fill="white" transform="translate(-652 -639)"/>
</clipPath>
</defs>
</svg>
